<?xml version="1.0" encoding="utf-8"?>
<!-- Generator: Adobe Illustrator 24.3.0, SVG Export Plug-In . SVG Version: 6.00 Build 0)  -->
<svg version="1.1" id="Layer_1" xmlns="http://www.w3.org/2000/svg" xmlns:xlink="http://www.w3.org/1999/xlink" x="0px" y="0px"
	 viewBox="0 0 512 512" style="enable-background:new 0 0 512 512;" xml:space="preserve">
<g>
	<path d="M256,0C117.2,0,0,117.22,0,256c0,81.65,40.75,155.6,102.4,202.85v1.95h2.6c42.7,31.88,95,51.2,151,51.2
		c55.98,0,108.27-19.33,150.98-51.2h2.62v-1.95C471.23,411.6,512,337.67,512,256C512,117.22,394.77,0,256,0z M155.48,433.33
		c7.6-34.43,38.25-60.25,74.92-60.25h51.2c36.65,0,67.3,25.85,74.9,60.25c-29.9,17.35-64.25,27.47-100.5,27.47
		S185.38,450.67,155.48,433.33z M399.6,400.42c-19.38-46.1-64.98-78.55-118-78.55h-51.2c-53.05,0-98.67,32.48-118.02,78.55
		C74.82,363.08,51.2,311.7,51.2,256c0-111.02,93.75-204.8,204.8-204.8c111.02,0,204.8,93.78,204.8,204.8
		C460.8,311.7,437.15,363.08,399.6,400.42z"/>
	<path d="M256,102.4c-58.38,0-102.4,44.05-102.4,102.4c0,58.37,44.02,102.4,102.4,102.4c58.35,0,102.4-44.03,102.4-102.4
		C358.4,146.45,314.35,102.4,256,102.4z M256,256c-30.18,0-51.2-21.05-51.2-51.2s21.02-51.2,51.2-51.2c30.15,0,51.2,21.05,51.2,51.2
		S286.15,256,256,256z"/>
</g>
</svg>
